<?xml version="1.0" encoding="UTF-8" standalone="no"?>
<!DOCTYPE svg PUBLIC "-//W3C//DTD SVG 1.1//EN" "http://www.w3.org/Graphics/SVG/1.1/DTD/svg11.dtd">
<svg width="100%" height="100%" viewBox="0 0 400 400" version="1.1" xmlns="http://www.w3.org/2000/svg" xmlns:xlink="http://www.w3.org/1999/xlink" xml:space="preserve" xmlns:serif="http://www.serif.com/" style="fill-rule:evenodd;clip-rule:evenodd;stroke-linejoin:round;stroke-miterlimit:2;">
    <g>
        <g transform="matrix(0.917726,0,0,0.917726,3.66817,12.0163)">
            <circle cx="206.966" cy="199.912" r="187.302" style="fill:white;"/>
        </g>
        <path d="M268.531,30.036L257.244,135.503L168.002,137.619L21.265,136.914L13.152,215.574L21.715,222.275C21.715,222.275 68.634,176.202 148.955,195.481C220.912,212.752 269.59,204.992 304.157,159.136C338.725,113.281 306.979,52.84 306.979,52.84L268.531,30.036Z" style="fill:rgb(14,43,61);"/>
        <path d="M278.218,40.164C278.218,40.164 305.872,94.909 270.881,132.44C235.89,169.97 184.25,156.708 170.423,151.064C156.595,145.42 93.114,125.932 21.715,160.368C21.715,160.368 38.077,59.353 119.629,26.902C201.181,-5.55 278.218,40.164 278.218,40.164Z" style="fill:white;"/>
        <path d="M78.307,115.785C78.307,115.785 73.457,48.765 115.344,33.774C157.231,18.783 200,23.589 200,23.589C200,23.589 208.377,73.457 263.933,73.457C263.933,73.457 273.192,153.263 179.277,126.808C85.362,100.353 78.307,115.785 78.307,115.785Z" style="fill:rgb(14,43,61);"/>
        <g id="white-on-top-splodge" serif:id="white on top splodge">
            <g transform="matrix(1.07123,0,0,1.07123,-12.011,-4.58334)">
                <circle cx="179.277" cy="54.497" r="10.141" style="fill:white;"/>
            </g>
            <circle cx="153.184" cy="89.482" r="13.364" style="fill:white;"/>
            <circle cx="202.487" cy="79.007" r="10.384" style="fill:white;"/>
            <circle cx="231.203" cy="98.512" r="6.592" style="fill:white;"/>
            <circle cx="208.808" cy="111.877" r="3.612" style="fill:white;"/>
            <circle cx="185.511" cy="106.639" r="6.863" style="fill:white;"/>
            <circle cx="120.856" cy="99.776" r="3.793" style="fill:white;"/>
            <path d="M102.054,84.445C102.054,84.445 100.429,37.128 160.93,21.235C160.93,21.235 154.97,69.997 102.054,84.445Z" style="fill:white;"/>
        </g>
        <g id="white-on-blue-stripe" serif:id="white on blue stripe">
            <g transform="matrix(1,0,0,1,-0.361199,0.722399)">
                <circle cx="274.005" cy="164.07" r="7.043" style="fill:white;"/>
            </g>
            <circle cx="291.523" cy="144.926" r="3.883" style="fill:white;"/>
            <circle cx="301.637" cy="115.489" r="3.612" style="fill:white;"/>
            <circle cx="309.583" cy="88.579" r="2.619" style="fill:white;"/>
            <circle cx="244.025" cy="181.046" r="4.063" style="fill:white;"/>
            <circle cx="215.31" cy="186.645" r="4.334" style="fill:white;"/>
            <circle cx="183.163" cy="181.046" r="8.127" style="fill:white;"/>
            <circle cx="156.254" cy="176.983" r="2.664" style="fill:white;"/>
            <circle cx="125.191" cy="166.598" r="11.107" style="fill:white;"/>
            <circle cx="93.947" cy="157.929" r="2.438" style="fill:white;"/>
            <circle cx="38.142" cy="181.046" r="5.418" style="fill:white;"/>
        </g>
        <path d="M339.17,95.191C339.17,95.191 347.354,163.198 291.199,204.679C235.043,246.161 151.798,222.457 151.798,222.457C151.798,222.457 81.393,202.281 27.072,256.602L48.518,292.439C48.518,292.439 99.029,244.75 178.324,287.925C257.618,331.099 307.565,306.267 355.819,260.835C355.819,260.835 404.242,210.323 365.498,132.44L339.17,95.191Z" style="fill:url(#_Linear1);"/>
        <path d="M355.683,118.553C355.683,118.553 358.478,178.889 292.165,221.57C225.851,264.251 167.65,235.679 125.322,235.327C82.993,234.974 59.008,241.323 27.967,276.596L39.96,285.768C39.96,285.768 80.877,236.385 145.78,259.665C210.683,282.946 261.477,305.873 320.736,265.662C379.995,225.45 380.523,192.646 380.523,192.646L355.683,118.553Z" style="fill:url(#_Linear2);"/>
        <path d="M365.498,151.346C365.498,151.346 328.951,300.341 155.154,245.314C155.154,245.314 295.996,336.217 370.211,186.055L365.498,151.346Z" style="fill:white;"/>
        <path d="M61.498,318.363C61.498,318.363 108.341,275.188 187.072,322.595C265.802,370.003 324.214,318.927 324.214,318.927C324.214,318.927 264.955,398.504 171.551,376.775C78.147,355.047 61.498,318.363 61.498,318.363Z" style="fill:rgb(6,168,252);"/>
        <g transform="matrix(1.04367,0,0,1.04367,-20.5236,-13.1609)">
            <path d="M206.966,12.61C310.341,12.61 394.268,96.537 394.268,199.912C394.268,303.286 310.341,387.213 206.966,387.213C103.592,387.213 19.665,303.286 19.665,199.912C19.665,96.537 103.592,12.61 206.966,12.61ZM205.171,35.212C114.271,35.212 40.471,109.012 40.471,199.912C40.471,290.812 114.271,364.611 205.171,364.611C296.071,364.611 369.871,290.812 369.871,199.912C369.871,109.012 296.071,35.212 205.171,35.212Z" style="fill:rgb(14,42,63);"/>
        </g>
        <g transform="matrix(1.31124,0,0,1.31124,-0.576993,-49.3906)">
            <path d="M57.974,158.692L60.246,164.559C60.332,164.78 60.459,164.98 60.619,165.149C60.779,165.318 60.969,165.451 61.178,165.542L66.74,167.939L61.178,170.336C60.969,170.426 60.779,170.56 60.619,170.729C60.459,170.897 60.332,171.098 60.246,171.319L57.974,177.186L55.701,171.319C55.616,171.098 55.489,170.897 55.329,170.729C55.169,170.56 54.979,170.426 54.769,170.336L49.208,167.939L54.769,165.542C54.979,165.451 55.169,165.318 55.329,165.149C55.489,164.98 55.616,164.78 55.701,164.559L57.974,158.692Z" style="fill:white;"/>
        </g>
    </g>
    <defs>
        <linearGradient id="_Linear1" x1="0" y1="0" x2="1" y2="0" gradientUnits="userSpaceOnUse" gradientTransform="matrix(353.451,0,0,215.135,27.0716,202.758)"><stop offset="0" style="stop-color:rgb(5,96,141);stop-opacity:1"/><stop offset="1" style="stop-color:rgb(60,155,217);stop-opacity:1"/></linearGradient>
        <linearGradient id="_Linear2" x1="0" y1="0" x2="1" y2="0" gradientUnits="userSpaceOnUse" gradientTransform="matrix(352.556,0,0,169.075,27.967,203.091)"><stop offset="0" style="stop-color:rgb(9,114,166);stop-opacity:1"/><stop offset="1" style="stop-color:rgb(11,90,134);stop-opacity:1"/></linearGradient>
    </defs>
</svg>
